<svg aria-roledescription="flowchart-v2" role="graphics-document document" viewBox="0 0 1916.21875 743.4896850585938" style="max-width: 1916.21875px;" class="flowchart" xmlns="http://www.w3.org/2000/svg" width="100%" id="mermaidSvgId"><style>#mermaidSvgId{font-family:"trebuchet ms",verdana,arial,sans-serif;font-size:16px;fill:#000000;}#mermaidSvgId .error-icon{fill:#552222;}#mermaidSvgId .error-text{fill:#552222;stroke:#552222;}#mermaidSvgId .edge-thickness-normal{stroke-width:1px;}#mermaidSvgId .edge-thickness-thick{stroke-width:3.5px;}#mermaidSvgId .edge-pattern-solid{stroke-dasharray:0;}#mermaidSvgId .edge-thickness-invisible{stroke-width:0;fill:none;}#mermaidSvgId .edge-pattern-dashed{stroke-dasharray:3;}#mermaidSvgId .edge-pattern-dotted{stroke-dasharray:2;}#mermaidSvgId .marker{fill:#666;stroke:#666;}#mermaidSvgId .marker.cross{stroke:#666;}#mermaidSvgId svg{font-family:"trebuchet ms",verdana,arial,sans-serif;font-size:16px;}#mermaidSvgId p{margin:0;}#mermaidSvgId .label{font-family:"trebuchet ms",verdana,arial,sans-serif;color:#000000;}#mermaidSvgId .cluster-label text{fill:#333;}#mermaidSvgId .cluster-label span{color:#333;}#mermaidSvgId .cluster-label span p{background-color:transparent;}#mermaidSvgId .label text,#mermaidSvgId span{fill:#000000;color:#000000;}#mermaidSvgId .node rect,#mermaidSvgId .node circle,#mermaidSvgId .node ellipse,#mermaidSvgId .node polygon,#mermaidSvgId .node path{fill:#eee;stroke:#999;stroke-width:1px;}#mermaidSvgId .rough-node .label text,#mermaidSvgId .node .label text,#mermaidSvgId .image-shape .label,#mermaidSvgId .icon-shape .label{text-anchor:middle;}#mermaidSvgId .node .katex path{fill:#000;stroke:#000;stroke-width:1px;}#mermaidSvgId .rough-node .label,#mermaidSvgId .node .label,#mermaidSvgId .image-shape .label,#mermaidSvgId .icon-shape .label{text-align:center;}#mermaidSvgId .node.clickable{cursor:pointer;}#mermaidSvgId .root .anchor path{fill:#666!important;stroke-width:0;stroke:#666;}#mermaidSvgId .arrowheadPath{fill:#333333;}#mermaidSvgId .edgePath .path{stroke:#666;stroke-width:2.0px;}#mermaidSvgId .flowchart-link{stroke:#666;fill:none;}#mermaidSvgId .edgeLabel{background-color:white;text-align:center;}#mermaidSvgId .edgeLabel p{background-color:white;}#mermaidSvgId .edgeLabel rect{opacity:0.5;background-color:white;fill:white;}#mermaidSvgId .labelBkg{background-color:rgba(255, 255, 255, 0.5);}#mermaidSvgId .cluster rect{fill:hsl(0, 0%, 98.9215686275%);stroke:#707070;stroke-width:1px;}#mermaidSvgId .cluster text{fill:#333;}#mermaidSvgId .cluster span{color:#333;}#mermaidSvgId div.mermaidTooltip{position:absolute;text-align:center;max-width:200px;padding:2px;font-family:"trebuchet ms",verdana,arial,sans-serif;font-size:12px;background:hsl(-160, 0%, 93.3333333333%);border:1px solid #707070;border-radius:2px;pointer-events:none;z-index:100;}#mermaidSvgId .flowchartTitleText{text-anchor:middle;font-size:18px;fill:#000000;}#mermaidSvgId rect.text{fill:none;stroke-width:0;}#mermaidSvgId .icon-shape,#mermaidSvgId .image-shape{background-color:white;text-align:center;}#mermaidSvgId .icon-shape p,#mermaidSvgId .image-shape p{background-color:white;padding:2px;}#mermaidSvgId .icon-shape rect,#mermaidSvgId .image-shape rect{opacity:0.5;background-color:white;fill:white;}#mermaidSvgId :root{--mermaid-font-family:"trebuchet ms",verdana,arial,sans-serif;}</style><g><marker orient="auto" markerHeight="8" markerWidth="8" markerUnits="userSpaceOnUse" refY="5" refX="5" viewBox="0 0 10 10" class="marker flowchart-v2" id="mermaidSvgId_flowchart-v2-pointEnd"><path style="stroke-width: 1; stroke-dasharray: 1, 0;" class="arrowMarkerPath" d="M 0 0 L 10 5 L 0 10 z"></path></marker><marker orient="auto" markerHeight="8" markerWidth="8" markerUnits="userSpaceOnUse" refY="5" refX="4.5" viewBox="0 0 10 10" class="marker flowchart-v2" id="mermaidSvgId_flowchart-v2-pointStart"><path style="stroke-width: 1; stroke-dasharray: 1, 0;" class="arrowMarkerPath" d="M 0 5 L 10 10 L 10 0 z"></path></marker><marker orient="auto" markerHeight="11" markerWidth="11" markerUnits="userSpaceOnUse" refY="5" refX="11" viewBox="0 0 10 10" class="marker flowchart-v2" id="mermaidSvgId_flowchart-v2-circleEnd"><circle style="stroke-width: 1; stroke-dasharray: 1, 0;" class="arrowMarkerPath" r="5" cy="5" cx="5"></circle></marker><marker orient="auto" markerHeight="11" markerWidth="11" markerUnits="userSpaceOnUse" refY="5" refX="-1" viewBox="0 0 10 10" class="marker flowchart-v2" id="mermaidSvgId_flowchart-v2-circleStart"><circle style="stroke-width: 1; stroke-dasharray: 1, 0;" class="arrowMarkerPath" r="5" cy="5" cx="5"></circle></marker><marker orient="auto" markerHeight="11" markerWidth="11" markerUnits="userSpaceOnUse" refY="5.2" refX="12" viewBox="0 0 11 11" class="marker cross flowchart-v2" id="mermaidSvgId_flowchart-v2-crossEnd"><path style="stroke-width: 2; stroke-dasharray: 1, 0;" class="arrowMarkerPath" d="M 1,1 l 9,9 M 10,1 l -9,9"></path></marker><marker orient="auto" markerHeight="11" markerWidth="11" markerUnits="userSpaceOnUse" refY="5.2" refX="-1" viewBox="0 0 11 11" class="marker cross flowchart-v2" id="mermaidSvgId_flowchart-v2-crossStart"><path style="stroke-width: 2; stroke-dasharray: 1, 0;" class="arrowMarkerPath" d="M 1,1 l 9,9 M 10,1 l -9,9"></path></marker><g class="root"><g class="clusters"><g data-look="classic" id="subGraph5" class="cluster"><rect height="142.95220184326172" width="593.7953186035156" y="592.5374488830566" x="957.7859344482422" style=""></rect><g transform="translate(1171.5148391723633, 592.5374488830566)" class="cluster-label"><g><rect style="stroke: none" class="background"></rect><text style="" y="-10.1"><tspan dy="1.1em" y="-0.1em" x="0" class="text-outer-tspan"><tspan font-weight="normal" class="text-inner-tspan" font-style="normal">Monitoring</tspan><tspan font-weight="normal" class="text-inner-tspan" font-style="normal"> and</tspan><tspan font-weight="normal" class="text-inner-tspan" font-style="normal"> Logging</tspan></tspan></text></g></g></g><g data-look="classic" id="subGraph4" class="cluster"><rect height="268.5374450683594" width="228.93594360351562" y="304.00000381469727" x="1322.6453094482422" style=""></rect><g transform="translate(1381.790626525879, 304.00000381469727)" class="cluster-label"><g><rect style="stroke: none" class="background"></rect><text style="" y="-10.1"><tspan dy="1.1em" y="-0.1em" x="0" class="text-outer-tspan"><tspan font-weight="normal" class="text-inner-tspan" font-style="normal">Database</tspan><tspan font-weight="normal" class="text-inner-tspan" font-style="normal"> Layer</tspan></tspan></text></g></g></g><g data-look="classic" id="subGraph3" class="cluster"><rect height="315.2000045776367" width="181.6750030517578" y="8" x="1726.5437393188477" style=""></rect><g transform="translate(1740.531234741211, 8)" class="cluster-label"><g><rect style="stroke: none" class="background"></rect><text style="" y="-10.1"><tspan dy="1.1em" y="-0.1em" x="0" class="text-outer-tspan"><tspan font-weight="normal" class="text-inner-tspan" font-style="normal">Notification</tspan><tspan font-weight="normal" class="text-inner-tspan" font-style="normal"> Channels</tspan></tspan></text></g></g></g><g data-look="classic" id="subGraph2" class="cluster"><rect height="266.40000343322754" width="593.7953186035156" y="17.600000381469727" x="957.7859344482422" style=""></rect><g transform="translate(1200.864845275879, 17.600000381469727)" class="cluster-label"><g><rect style="stroke: none" class="background"></rect><text style="" y="-10.1"><tspan dy="1.1em" y="-0.1em" x="0" class="text-outer-tspan"><tspan font-weight="normal" class="text-inner-tspan" font-style="normal">Event</tspan><tspan font-weight="normal" class="text-inner-tspan" font-style="normal"> Handling</tspan></tspan></text></g></g></g><g data-look="classic" id="subGraph1" class="cluster"><rect height="528.8135471343994" width="221.5" y="155.2000026702881" x="583.7093734741211" style=""></rect><g transform="translate(660.0804672241211, 155.2000026702881)" class="cluster-label"><g><rect style="stroke: none" class="background"></rect><text style="" y="-10.1"><tspan dy="1.1em" y="-0.1em" x="0" class="text-outer-tspan"><tspan font-weight="normal" class="text-inner-tspan" font-style="normal">API</tspan><tspan font-weight="normal" class="text-inner-tspan" font-style="normal"> Layer</tspan></tspan></text></g></g></g><g data-look="classic" id="subGraph0" class="cluster"><rect height="118.4000015258789" width="467.4296875" y="439.56010818481445" x="8" style=""></rect><g transform="translate(183.8773422241211, 439.56010818481445)" class="cluster-label"><g><rect style="stroke: none" class="background"></rect><text style="" y="-10.1"><tspan dy="1.1em" y="-0.1em" x="0" class="text-outer-tspan"><tspan font-weight="normal" class="text-inner-tspan" font-style="normal">User</tspan><tspan font-weight="normal" class="text-inner-tspan" font-style="normal"> Interaction</tspan></tspan></text></g></g></g></g><g class="edgePaths"><path marker-end="url(#mermaidSvgId_flowchart-v2-pointEnd)" style="" class="edge-thickness-normal edge-pattern-solid edge-thickness-normal edge-pattern-solid flowchart-link" id="L_user_saas_app_0" d="M125.778,498.76L138.061,498.76C150.343,498.76,174.908,498.76,198.806,498.76C222.704,498.76,245.936,498.76,257.551,498.76L269.167,498.76"></path><path marker-end="url(#mermaidSvgId_flowchart-v2-pointEnd)" style="" class="edge-thickness-normal edge-pattern-solid edge-thickness-normal edge-pattern-solid flowchart-link" id="L_saas_app_notification_api_1" d="M450.43,498.76L454.596,498.76C458.763,498.76,467.096,498.76,480.286,498.76C493.476,498.76,511.523,498.76,529.57,498.76C547.616,498.76,565.663,498.76,578.186,498.76C590.709,498.76,597.709,498.76,601.209,498.76L604.709,498.76"></path><path marker-end="url(#mermaidSvgId_flowchart-v2-pointEnd)" style="" class="edge-thickness-normal edge-pattern-solid edge-thickness-normal edge-pattern-solid flowchart-link" id="L_notification_api_event_handler_2" d="M703.288,474.56L720.275,428C737.262,381.44,771.236,288.32,800.937,241.76C830.639,195.2,856.068,195.2,881.498,195.2C906.927,195.2,932.357,195.2,948.571,195.2C964.786,195.2,971.786,195.2,975.286,195.2L978.786,195.2"></path><path marker-end="url(#mermaidSvgId_flowchart-v2-pointEnd)" style="" class="edge-thickness-normal edge-pattern-solid edge-thickness-normal edge-pattern-solid flowchart-link" id="L_event_handler_action_service_3" d="M1145.008,181.071L1159.811,178.493C1174.614,175.914,1204.22,170.757,1233.827,168.179C1263.433,165.6,1293.039,165.6,1312.672,165.6C1332.304,165.6,1341.964,165.6,1346.793,165.6L1351.623,165.6"></path><path marker-end="url(#mermaidSvgId_flowchart-v2-pointEnd)" style="" class="edge-thickness-normal edge-pattern-solid edge-thickness-normal edge-pattern-solid flowchart-link" id="L_action_service_discord_4" d="M1465.265,141.4L1479.651,129.033C1494.037,116.667,1522.809,91.933,1551.775,79.567C1580.742,67.2,1609.902,67.2,1639.062,67.2C1668.223,67.2,1697.383,67.2,1717.061,67.2C1736.74,67.2,1746.935,67.2,1752.033,67.2L1757.131,67.2"></path><path marker-end="url(#mermaidSvgId_flowchart-v2-pointEnd)" style="" class="edge-thickness-normal edge-pattern-solid edge-thickness-normal edge-pattern-solid flowchart-link" id="L_action_service_whatsapp_5" d="M1518.604,165.6L1524.1,165.6C1529.596,165.6,1540.589,165.6,1560.665,165.6C1580.742,165.6,1609.902,165.6,1639.062,165.6C1668.223,165.6,1697.383,165.6,1715.464,165.6C1733.544,165.6,1740.544,165.6,1744.044,165.6L1747.544,165.6"></path><path marker-end="url(#mermaidSvgId_flowchart-v2-pointEnd)" style="" class="edge-thickness-normal edge-pattern-solid edge-thickness-normal edge-pattern-solid flowchart-link" id="L_action_service_gmail_6" d="M1465.265,189.8L1479.651,202.167C1494.037,214.533,1522.809,239.267,1551.775,251.633C1580.742,264,1609.902,264,1639.062,264C1668.223,264,1697.383,264,1717.947,264C1738.511,264,1750.479,264,1756.462,264L1762.446,264"></path><path marker-end="url(#mermaidSvgId_flowchart-v2-pointEnd)" style="" class="edge-thickness-normal edge-pattern-solid edge-thickness-normal edge-pattern-solid flowchart-link" id="L_event_handler_event_db_7" d="M1145.008,216.011L1159.811,219.809C1174.614,223.607,1204.22,231.204,1233.827,235.002C1263.433,238.8,1293.039,238.8,1321.504,255.24C1349.969,271.68,1377.293,304.559,1390.955,320.999L1404.617,337.439"></path><path marker-end="url(#mermaidSvgId_flowchart-v2-pointEnd)" style="" class="edge-thickness-normal edge-pattern-solid edge-thickness-normal edge-pattern-solid flowchart-link" id="L_notification_api_user_settings_db_8" d="M780.209,498.76L784.376,498.76C788.543,498.76,796.876,498.76,813.757,498.76C830.639,498.76,856.068,498.76,881.498,498.76C906.927,498.76,932.357,498.76,962.756,498.76C993.156,498.76,1028.527,498.76,1074.533,498.76C1120.54,498.76,1177.183,498.76,1220.308,498.76C1263.433,498.76,1293.039,498.76,1311.342,498.76C1329.645,498.76,1336.645,498.76,1340.145,498.76L1343.645,498.76"></path><path marker-end="url(#mermaidSvgId_flowchart-v2-pointEnd)" style="" class="edge-thickness-normal edge-pattern-solid edge-thickness-normal edge-pattern-solid flowchart-link" id="L_notification_api_log_service_9" d="M710.678,522.96L726.433,546.469C742.188,569.978,773.699,616.996,802.169,640.505C830.639,664.014,856.068,664.014,881.498,664.014C906.927,664.014,932.357,664.014,950.314,664.014C968.272,664.014,978.758,664.014,984.001,664.014L989.244,664.014"></path><path marker-end="url(#mermaidSvgId_flowchart-v2-pointEnd)" style="" class="edge-thickness-normal edge-pattern-solid edge-thickness-normal edge-pattern-solid flowchart-link" id="L_log_service_logging_db_10" d="M1134.55,664.014L1151.096,664.014C1167.642,664.014,1200.734,664.014,1232.084,664.014C1263.433,664.014,1293.039,664.014,1314.631,664.014C1336.222,664.014,1349.799,664.014,1356.588,664.014L1363.377,664.014"></path></g><g class="edgeLabels"><g transform="translate(199.47265625, 498.7601089477539)" class="edgeLabel"><g transform="translate(-48.69453430175781, -11.199999809265137)" class="label"><g><rect height="22.399999618530273" width="97.38906860351562" y="-1.199999988079071" x="-2" style="" class="background"></rect><text style="" y="-10.1"><tspan dy="1.1em" y="-0.1em" x="0" class="text-outer-tspan"><tspan font-weight="normal" class="text-inner-tspan" font-style="normal">trigger</tspan><tspan font-weight="normal" class="text-inner-tspan" font-style="normal"> event</tspan></tspan></text></g></g></g><g transform="translate(529.5695304870605, 498.7601089477539)" class="edgeLabel"><g transform="translate(-29.139842987060547, -11.199999809265137)" class="label"><g><rect height="22.399999618530273" width="58.27968978881836" y="-1.199999988079071" x="-2.800000011920929" style="" class="background"></rect><text style="" y="-10.1"><tspan dy="1.1em" y="-0.1em" x="0" class="text-outer-tspan"><tspan font-weight="normal" class="text-inner-tspan" font-style="normal">API</tspan><tspan font-weight="normal" class="text-inner-tspan" font-style="normal"> call</tspan></tspan></text></g></g></g><g transform="translate(881.4976539611816, 195.2000026702881)" class="edgeLabel"><g transform="translate(-51.28828048706055, -11.199999809265137)" class="label"><g><rect height="22.399999618530273" width="102.57656860351562" y="-1.199999988079071" x="-2" style="" class="background"></rect><text style="" y="-10.1"><tspan dy="1.1em" y="-0.1em" x="0" class="text-outer-tspan"><tspan font-weight="normal" class="text-inner-tspan" font-style="normal">process</tspan><tspan font-weight="normal" class="text-inner-tspan" font-style="normal"> event</tspan></tspan></text></g></g></g><g transform="translate(1233.826560974121, 165.60000228881836)" class="edgeLabel"><g transform="translate(-63.818748474121094, -11.199999809265137)" class="label"><g><rect height="22.399999618530273" width="127.63749694824219" y="-1.199999988079071" x="-2" style="" class="background"></rect><text style="" y="-10.1"><tspan dy="1.1em" y="-0.1em" x="0" class="text-outer-tspan"><tspan font-weight="normal" class="text-inner-tspan" font-style="normal">determine</tspan><tspan font-weight="normal" class="text-inner-tspan" font-style="normal"> action</tspan></tspan></text></g></g></g><g transform="translate(1639.0624961853027, 67.20000076293945)" class="edgeLabel"><g transform="translate(-62.48124313354492, -11.199999809265137)" class="label"><g><rect height="22.399999618530273" width="124.96249389648438" y="-1.199999988079071" x="-2" style="" class="background"></rect><text style="" y="-10.1"><tspan dy="1.1em" y="-0.1em" x="0" class="text-outer-tspan"><tspan font-weight="normal" class="text-inner-tspan" font-style="normal">send</tspan><tspan font-weight="normal" class="text-inner-tspan" font-style="normal"> notification</tspan></tspan></text></g></g></g><g transform="translate(1639.0624961853027, 165.60000228881836)" class="edgeLabel"><g transform="translate(-62.48124313354492, -11.199999809265137)" class="label"><g><rect height="22.399999618530273" width="124.96249389648438" y="-1.199999988079071" x="-2" style="" class="background"></rect><text style="" y="-10.1"><tspan dy="1.1em" y="-0.1em" x="0" class="text-outer-tspan"><tspan font-weight="normal" class="text-inner-tspan" font-style="normal">send</tspan><tspan font-weight="normal" class="text-inner-tspan" font-style="normal"> notification</tspan></tspan></text></g></g></g><g transform="translate(1639.0624961853027, 264.00000381469727)" class="edgeLabel"><g transform="translate(-62.48124313354492, -11.199999809265137)" class="label"><g><rect height="22.399999618530273" width="124.96249389648438" y="-1.199999988079071" x="-2" style="" class="background"></rect><text style="" y="-10.1"><tspan dy="1.1em" y="-0.1em" x="0" class="text-outer-tspan"><tspan font-weight="normal" class="text-inner-tspan" font-style="normal">send</tspan><tspan font-weight="normal" class="text-inner-tspan" font-style="normal"> notification</tspan></tspan></text></g></g></g><g transform="translate(1233.826560974121, 238.80000352859497)" class="edgeLabel"><g transform="translate(-35.294532775878906, -11.199999809265137)" class="label"><g><rect height="22.399999618530273" width="70.58906555175781" y="-1.199999988079071" x="-2" style="" class="background"></rect><text style="" y="-10.1"><tspan dy="1.1em" y="-0.1em" x="0" class="text-outer-tspan"><tspan font-weight="normal" class="text-inner-tspan" font-style="normal">log</tspan><tspan font-weight="normal" class="text-inner-tspan" font-style="normal"> event</tspan></tspan></text></g></g></g><g transform="translate(1063.896873474121, 498.7601089477539)" class="edgeLabel"><g transform="translate(-50.443748474121094, -11.199999809265137)" class="label"><g><rect height="22.399999618530273" width="100.88749694824219" y="-1.199999988079071" x="-2" style="" class="background"></rect><text style="" y="-10.1"><tspan dy="1.1em" y="-0.1em" x="0" class="text-outer-tspan"><tspan font-weight="normal" class="text-inner-tspan" font-style="normal">store</tspan><tspan font-weight="normal" class="text-inner-tspan" font-style="normal"> settings</tspan></tspan></text></g></g></g><g transform="translate(881.4976539611816, 664.0135498046875)" class="edgeLabel"><g transform="translate(-15.90625, -11.199999809265137)" class="label"><g><rect height="22.399999618530273" width="31.8125" y="-1.199999988079071" x="-2" style="" class="background"></rect><text style="" y="-10.1"><tspan dy="1.1em" y="-0.1em" x="0" class="text-outer-tspan"><tspan font-weight="normal" class="text-inner-tspan" font-style="normal">logs</tspan></tspan></text></g></g></g><g transform="translate(1233.826560974121, 664.0135498046875)" class="edgeLabel"><g transform="translate(-36.5, -11.199999809265137)" class="label"><g><rect height="22.399999618530273" width="73" y="-1.199999988079071" x="-2" style="" class="background"></rect><text style="" y="-10.1"><tspan dy="1.1em" y="-0.1em" x="0" class="text-outer-tspan"><tspan font-weight="normal" class="text-inner-tspan" font-style="normal">store</tspan><tspan font-weight="normal" class="text-inner-tspan" font-style="normal"> logs</tspan></tspan></text></g></g></g></g><g class="nodes"><g transform="translate(79.3890609741211, 498.7601089477539)" id="flowchart-user-278" class="node default"><rect height="48.39999961853027" width="92.77812576293945" y="-24.199999809265137" x="-46.38906288146973" style="" class="basic label-container"></rect><g transform="translate(0, -9.199999809265137)" style="" class="label"><rect></rect><g><rect style="stroke: none" class="background"></rect><text style="" y="-10.1"><tspan dy="1.1em" y="-0.1em" x="0" class="text-outer-tspan"><tspan font-weight="normal" class="text-inner-tspan" font-style="normal">User</tspan></tspan></text></g></g></g><g transform="translate(361.7984390258789, 498.7601089477539)" id="flowchart-saas_app-279" class="node default"><rect height="48.39999961853027" width="177.26250457763672" y="-24.199999809265137" x="-88.63125228881836" style="" class="basic label-container"></rect><g transform="translate(0, -9.199999809265137)" style="" class="label"><rect></rect><g><rect style="stroke: none" class="background"></rect><text style="" y="-10.1"><tspan dy="1.1em" y="-0.1em" x="0" class="text-outer-tspan"><tspan font-weight="normal" class="text-inner-tspan" font-style="normal">SaaS</tspan><tspan font-weight="normal" class="text-inner-tspan" font-style="normal"> Application</tspan></tspan></text></g></g></g><g transform="translate(694.4593734741211, 498.7601089477539)" id="flowchart-notification_api-281" class="node default"><rect height="48.39999961853027" width="171.5" y="-24.199999809265137" x="-85.75" style="" class="basic label-container"></rect><g transform="translate(0, -9.199999809265137)" style="" class="label"><rect></rect><g><rect style="stroke: none" class="background"></rect><text style="" y="-10.1"><tspan dy="1.1em" y="-0.1em" x="0" class="text-outer-tspan"><tspan font-weight="normal" class="text-inner-tspan" font-style="normal">Notification</tspan><tspan font-weight="normal" class="text-inner-tspan" font-style="normal"> API</tspan></tspan></text></g></g></g><g transform="translate(1063.896873474121, 195.2000026702881)" id="flowchart-event_handler-283" class="node default"><rect height="48.39999961853027" width="162.2218780517578" y="-24.199999809265137" x="-81.1109390258789" style="" class="basic label-container"></rect><g transform="translate(0, -9.199999809265137)" style="" class="label"><rect></rect><g><rect style="stroke: none" class="background"></rect><text style="" y="-10.1"><tspan dy="1.1em" y="-0.1em" x="0" class="text-outer-tspan"><tspan font-weight="normal" class="text-inner-tspan" font-style="normal">Event</tspan><tspan font-weight="normal" class="text-inner-tspan" font-style="normal"> Handler</tspan></tspan></text></g></g></g><g transform="translate(1437.11328125, 165.60000228881836)" id="flowchart-action_service-285" class="node default"><rect height="48.39999961853027" width="162.98125457763672" y="-24.199999809265137" x="-81.49062728881836" style="" class="basic label-container"></rect><g transform="translate(0, -9.199999809265137)" style="" class="label"><rect></rect><g><rect style="stroke: none" class="background"></rect><text style="" y="-10.1"><tspan dy="1.1em" y="-0.1em" x="0" class="text-outer-tspan"><tspan font-weight="normal" class="text-inner-tspan" font-style="normal">Action</tspan><tspan font-weight="normal" class="text-inner-tspan" font-style="normal"> Service</tspan></tspan></text></g></g></g><g transform="translate(1817.3812408447266, 67.20000076293945)" id="flowchart-discord-287" class="node default"><rect height="48.39999961853027" width="112.5" y="-24.199999809265137" x="-56.25" style="" class="basic label-container"></rect><g transform="translate(0, -9.199999809265137)" style="" class="label"><rect></rect><g><rect style="stroke: none" class="background"></rect><text style="" y="-10.1"><tspan dy="1.1em" y="-0.1em" x="0" class="text-outer-tspan"><tspan font-weight="normal" class="text-inner-tspan" font-style="normal">Discord</tspan></tspan></text></g></g></g><g transform="translate(1817.3812408447266, 165.60000228881836)" id="flowchart-whatsapp-289" class="node default"><rect height="48.39999961853027" width="131.6750030517578" y="-24.199999809265137" x="-65.8375015258789" style="" class="basic label-container"></rect><g transform="translate(0, -9.199999809265137)" style="" class="label"><rect></rect><g><rect style="stroke: none" class="background"></rect><text style="" y="-10.1"><tspan dy="1.1em" y="-0.1em" x="0" class="text-outer-tspan"><tspan font-weight="normal" class="text-inner-tspan" font-style="normal">WhatsApp</tspan></tspan></text></g></g></g><g transform="translate(1817.3812408447266, 264.00000381469727)" id="flowchart-gmail-291" class="node default"><rect height="48.39999961853027" width="101.87031173706055" y="-24.199999809265137" x="-50.93515586853027" style="" class="basic label-container"></rect><g transform="translate(0, -9.199999809265137)" style="" class="label"><rect></rect><g><rect style="stroke: none" class="background"></rect><text style="" y="-10.1"><tspan dy="1.1em" y="-0.1em" x="0" class="text-outer-tspan"><tspan font-weight="normal" class="text-inner-tspan" font-style="normal">Gmail</tspan></tspan></text></g></g></g><g transform="translate(1437.11328125, 374.4913864135742)" id="flowchart-event_db-293" class="node default"><path transform="translate(-62.80546951293945, -35.495708535228)" style="" class="basic label-container" d="M0,12.53047248397524 a62.80546951293945,12.53047248397524 0,0,0 125.6109390258789,0 a62.80546951293945,12.53047248397524 0,0,0 -125.6109390258789,0 l0,45.93047210250551 a62.80546951293945,12.53047248397524 0,0,0 125.6109390258789,0 l0,-45.93047210250551"></path><g transform="translate(-0.03672027587890625, 1.7881393432617188e-7)" style="" class="label"><rect></rect><g><rect style="stroke: none" class="background"></rect><text style="" y="-10.1"><tspan dy="1.1em" y="-0.1em" x="0" class="text-outer-tspan"><tspan font-weight="normal" class="text-inner-tspan" font-style="normal">Event</tspan><tspan font-weight="normal" class="text-inner-tspan" font-style="normal"> Database</tspan></tspan></text></g></g></g><g transform="translate(1437.11328125, 498.7601089477539)" id="flowchart-user_settings_db-295" class="node default"><path transform="translate(-89.46797180175781, -38.77734217810703)" style="" class="basic label-container" d="M0,14.718228245894595 a89.46797180175781,14.718228245894595 0,0,0 178.93594360351562,0 a89.46797180175781,14.718228245894595 0,0,0 -178.93594360351562,0 l0,48.11822786442487 a89.46797180175781,14.718228245894595 0,0,0 178.93594360351562,0 l0,-48.11822786442487"></path><g transform="translate(-0.03672027587890625, 1.7881393432617188e-7)" style="" class="label"><rect></rect><g><rect style="stroke: none" class="background"></rect><text style="" y="-10.1"><tspan dy="1.1em" y="-0.1em" x="0" class="text-outer-tspan"><tspan font-weight="normal" class="text-inner-tspan" font-style="normal">User</tspan><tspan font-weight="normal" class="text-inner-tspan" font-style="normal"> Settings</tspan><tspan font-weight="normal" class="text-inner-tspan" font-style="normal"> Database</tspan></tspan></text></g></g></g><g transform="translate(1063.896873474121, 664.0135498046875)" id="flowchart-log_service-297" class="node default"><rect height="48.39999961853027" width="141.3062515258789" y="-24.199999809265137" x="-70.65312576293945" style="" class="basic label-container"></rect><g transform="translate(0, -9.199999809265137)" style="" class="label"><rect></rect><g><rect style="stroke: none" class="background"></rect><text style="" y="-10.1"><tspan dy="1.1em" y="-0.1em" x="0" class="text-outer-tspan"><tspan font-weight="normal" class="text-inner-tspan" font-style="normal">Log</tspan><tspan font-weight="normal" class="text-inner-tspan" font-style="normal"> Service</tspan></tspan></text></g></g></g><g transform="translate(1437.11328125, 664.0135498046875)" id="flowchart-logging_db-299" class="node default"><path transform="translate(-69.73672103881836, -36.476102985538034)" style="" class="basic label-container" d="M0,13.18406878418193 a69.73672103881836,13.18406878418193 0,0,0 139.47344207763672,0 a69.73672103881836,13.18406878418193 0,0,0 -139.47344207763672,0 l0,46.584068402712205 a69.73672103881836,13.18406878418193 0,0,0 139.47344207763672,0 l0,-46.584068402712205"></path><g transform="translate(-0.03672027587890625, 1.7881393432617188e-7)" style="" class="label"><rect></rect><g><rect style="stroke: none" class="background"></rect><text style="" y="-10.1"><tspan dy="1.1em" y="-0.1em" x="0" class="text-outer-tspan"><tspan font-weight="normal" class="text-inner-tspan" font-style="normal">Logging</tspan><tspan font-weight="normal" class="text-inner-tspan" font-style="normal"> Database</tspan></tspan></text></g></g></g></g></g></g></svg>